<svg xmlns="http://www.w3.org/2000/svg" viewBox="0 0 2048 360" preserveAspectRatio="none">
  <defs>
    <linearGradient id="bg" x1="0" y1="0" x2="1" y2="0">
      <stop offset="0" stop-color="#032f24"/>
      <stop offset="0.42" stop-color="#044334"/>
      <stop offset="0.72" stop-color="#0b5947"/>
      <stop offset="1" stop-color="#031f19"/>
    </linearGradient>
    <linearGradient id="fade" x1="0" y1="0" x2="1" y2="0">
      <stop offset="0" stop-color="#032f24"/>
      <stop offset="0.42" stop-color="#032f24" stop-opacity=".88"/>
      <stop offset="0.64" stop-color="#032f24" stop-opacity=".36"/>
      <stop offset="1" stop-color="#032f24" stop-opacity=".15"/>
    </linearGradient>
    <linearGradient id="sky" x1="0" y1="0" x2="0" y2="1">
      <stop offset="0" stop-color="#7fa091" stop-opacity=".46"/>
      <stop offset="1" stop-color="#0b3e34" stop-opacity=".20"/>
    </linearGradient>
  </defs>
  <rect width="2048" height="360" fill="url(#bg)"/>
  <rect width="2048" height="360" fill="url(#sky)"/>
  <g opacity=".34" fill="none" stroke="#d7c7a7" stroke-width="2">
    <path d="M1040 195h900v118h-900z" fill="#1c3a34" opacity=".78"/>
    <path d="M1010 195h960M1040 313h900M1065 214v80M1115 214v80M1165 214v80M1215 214v80M1265 214v80M1315 214v80M1365 214v80M1415 214v80M1465 214v80M1515 214v80M1565 214v80M1615 214v80M1665 214v80M1715 214v80M1765 214v80M1815 214v80M1865 214v80"/>
    <path d="M1048 224h28v38h-28zM1098 224h28v38h-28zM1148 224h28v38h-28zM1198 224h28v38h-28zM1248 224h28v38h-28zM1298 224h28v38h-28zM1348 224h28v38h-28zM1398 224h28v38h-28zM1648 224h28v38h-28zM1698 224h28v38h-28zM1748 224h28v38h-28zM1798 224h28v38h-28zM1848 224h28v38h-28z" fill="#092a24" opacity=".7"/>
    <path d="M1450 195v-58l82-58 82 58v58" fill="#16362f" opacity=".9"/>
    <path d="M1484 195v-45h96v45M1512 195v-65h40v65M1462 137h140M1494 111h76M1532 79V28"/>
    <path d="M1509 76l23-13 24 13-24 13z" fill="#c5d0c9" opacity=".6"/>
    <path d="M1532 63v-31"/>
    <path d="M1390 195v-34l40-28 40 28v34M1594 195v-34l40-28 40 28v34" opacity=".72"/>
    <path d="M990 313h1000" opacity=".55"/>
  </g>
  <rect width="2048" height="360" fill="url(#fade)"/>
  <rect width="2048" height="360" fill="#000" opacity=".06"/>
</svg>
